<svg xmlns="http://www.w3.org/2000/svg" viewBox="0 0 24 24" fill="none" stroke="currentColor" stroke-width="1.5" stroke-linecap="round" stroke-linejoin="round">
  <!-- Map pin -->
  <path d="M12 21c-4-4-8-7.5-8-11a8 8 0 1 1 16 0c0 3.5-4 7-8 11z"/>
  <circle cx="12" cy="10" r="2.5"/>
  <!-- Heat arcs -->
  <path d="M7.5 5.5a6.5 6.5 0 0 0-1.8 3" opacity="0.6"/>
  <path d="M5.5 4a9 9 0 0 0-2.5 4.5" opacity="0.35"/>
  <path d="M16.5 5.5a6.5 6.5 0 0 1 1.8 3" opacity="0.6"/>
  <path d="M18.5 4a9 9 0 0 1 2.5 4.5" opacity="0.35"/>
</svg>
